<?xml version="1.0" encoding="UTF-8" standalone="no"?><!DOCTYPE svg PUBLIC "-//W3C//DTD SVG 1.1//EN" "http://www.w3.org/Graphics/SVG/1.1/DTD/svg11.dtd"><svg width="100%" height="100%" viewBox="0 0 434 200" version="1.1" xmlns="http://www.w3.org/2000/svg" xmlns:xlink="http://www.w3.org/1999/xlink" xml:space="preserve" xmlns:serif="http://www.serif.com/" style="fill-rule:evenodd;clip-rule:evenodd;stroke-linejoin:round;stroke-miterlimit:1.41421;"><g><path d="M426.022,0.458l-418.258,0c-4.28,0 -7.764,3.486 -7.764,7.772l0,184.003c0,4.285 3.484,7.767 7.764,7.767l418.258,0c4.288,0 7.769,-3.482 7.769,-7.767l0,-184.003c0,-4.286 -3.481,-7.772 -7.769,-7.772Z" style="fill:#d3b17b;fill-rule:nonzero;"/><path d="M4.387,149.759l0,-141.529c0,-1.865 1.515,-3.383 3.377,-3.383l418.258,0c1.864,0 3.381,1.518 3.381,3.383l0,141.529l-425.016,0Z" style="fill:#22294b;fill-rule:nonzero;"/><path d="M76.012,186.85c-3.259,0 -5.814,-1.424 -7.602,-4.237c-1.309,-2.06 -1.975,-4.516 -1.975,-7.297c0,-2.23 0.441,-4.316 1.298,-6.198c0.867,-1.887 2.086,-3.377 3.621,-4.429c1.543,-1.046 3.25,-1.578 5.069,-1.578c1.435,0 2.862,0.41 4.246,1.217c0.246,0.151 0.454,0.231 0.616,0.231c0.422,0 0.618,-0.68 0.7,-1.08l0.074,-0.368l1.28,0l0.483,8.327l-1.259,0l-0.088,-0.338c-0.554,-2.131 -1.328,-3.67 -2.316,-4.578c-0.969,-0.898 -2.149,-1.354 -3.51,-1.354c-1.14,0 -2.185,0.346 -3.11,1.022c-0.921,0.677 -1.666,1.79 -2.208,3.307c-0.558,1.551 -0.84,3.522 -0.84,5.856c0,1.916 0.267,3.59 0.788,4.981c0.508,1.352 1.282,2.401 2.296,3.119c0.981,0.697 2.216,1.086 3.475,1.086c1.102,0 2.129,-0.294 2.975,-0.845c0.876,-0.571 1.863,-1.74 2.933,-3.475l0.257,-0.422l1.126,0.842l-0.162,0.338c-0.964,1.996 -2.12,3.49 -3.431,4.437c-1.328,0.953 -2.919,1.436 -4.736,1.436Z" style="fill:#22294b;"/><path d="M359.027,186.85c-3.255,0 -5.811,-1.424 -7.598,-4.237c-1.313,-2.06 -1.977,-4.516 -1.977,-7.297c0,-2.23 0.433,-4.316 1.296,-6.198c0.866,-1.887 2.085,-3.377 3.62,-4.429c1.544,-1.046 3.25,-1.578 5.074,-1.578c1.431,0 2.862,0.41 4.243,1.217c0.244,0.151 0.456,0.231 0.614,0.231c0.42,0 0.623,-0.68 0.7,-1.08l0.077,-0.368l1.277,0l0.483,8.327l-1.259,0l-0.09,-0.338c-0.551,-2.131 -1.323,-3.67 -2.312,-4.578c-0.97,-0.898 -2.148,-1.354 -3.511,-1.354c-1.138,0 -2.186,0.346 -3.112,1.022c-0.92,0.677 -1.661,1.79 -2.207,3.307c-0.554,1.551 -0.835,3.522 -0.835,5.856c0,1.916 0.262,3.59 0.785,4.981c0.511,1.352 1.278,2.401 2.294,3.119c0.984,0.697 2.216,1.086 3.476,1.086c1.097,0 2.126,-0.294 2.979,-0.845c0.872,-0.571 1.856,-1.74 2.925,-3.475l0.258,-0.422l1.128,0.842l-0.167,0.338c-0.961,1.996 -2.112,3.49 -3.426,4.437c-1.327,0.953 -2.921,1.436 -4.735,1.436Z" style="fill:#22294b;"/><path d="M170.799,164.753l0.47,0c1.008,0 1.979,0.095 2.225,0.765c0.061,0.173 0.164,0.67 0.164,2.043l0,5.525l-8.894,0.005l0,-5.567c0,-1.638 0.198,-2.099 0.282,-2.218c0.39,-0.546 1.011,-0.589 1.785,-0.589l0.799,0l0,-1.16l-9.489,0l0,1.196l0.464,0c1.012,0 1.978,0.095 2.231,0.765c0.059,0.173 0.162,0.67 0.162,2.043l0,14.598c0,1.694 -0.21,2.129 -0.27,2.222c-0.389,0.551 -1.023,0.594 -1.811,0.594l-0.776,0l0,1.428l9.489,0l0,-1.379l-0.043,-0.061l-0.573,0c-0.887,0 -1.849,-0.05 -2.043,-0.601c-0.099,-0.286 -0.207,-1.566 -0.207,-2.622l0,-6.548l8.897,0l-0.003,6.927c0,1.691 -0.207,2.126 -0.272,2.217c-0.386,0.555 -1.016,0.654 -1.804,0.654l-0.783,-0.005l0,1.418l9.498,0l0,-1.379l-0.158,-0.02l-0.465,0c-0.887,0 -1.847,-0.05 -2.043,-0.601c-0.099,-0.289 -0.21,-1.16 -0.21,-2.216l0,-14.663c0,-1.638 0.201,-2.099 0.285,-2.218c0.388,-0.546 1.016,-0.589 1.79,-0.589l0.801,0l0,-1.16l-9.498,0l0,1.196Z" style="fill:#22294b;"/><path d="M306.144,172.305c-0.456,0.466 -1.119,0.695 -2.076,0.695l-2.723,0l0.005,-5.092l-0.005,-2.072c0.533,-0.384 1.241,-0.58 2.109,-0.58c2.613,0 3.389,2.666 3.439,4.074c0.036,1.064 -0.013,2.212 -0.749,2.975Zm-1.752,11.961c-1.042,0 -2.062,-0.389 -3.042,-1.156c0.004,-2.345 0,-4.294 0,-6.442l0,-1.952l1.196,0c3.625,0 5.246,2.754 5.246,5.48c0,0.415 -0.095,4.07 -3.4,4.07Zm5.883,-9.638c-0.75,-0.468 -1.756,-0.759 -3.061,-0.888c1.038,-0.762 1.86,-1.566 2.447,-2.392c0.821,-1.154 1.237,-2.212 1.237,-3.474c0,-2.892 -1.897,-4.36 -5.644,-4.36l-10.532,0.038l0,1.444l1.178,0c0.614,0 1.323,0.239 1.521,0.771c0.116,0.327 0.162,0.904 0.162,1.875l0,14.87c0,1.101 -0.089,1.767 -0.275,2.034c-0.383,0.557 -1.019,0.602 -1.809,0.602l-0.777,0l0,1.163l8.312,0.001c5.205,0 8.83,-4.329 8.83,-8.215c0,-1.65 -0.537,-2.82 -1.589,-3.469Z" style="fill:#22294b;"/><path d="M335.724,186.304l0,-0.985l0.501,0c0.885,0 1.652,-0.055 2.14,-0.754c0.149,-0.218 0.334,-0.83 0.334,-2.473l0,-14.113c0,-1.389 -0.104,-1.974 -0.19,-2.219c-0.086,-0.242 -0.266,-0.448 -0.551,-0.628c-0.411,-0.248 -0.848,-0.372 -1.309,-0.372l-0.925,0l0,-1.281l9.268,0l0,1.281l-0.935,0c-0.781,0 -1.345,0.246 -1.697,0.737c-0.235,0.33 -0.357,1.167 -0.357,2.482l0,14.113c0,1.192 0.122,2.081 0.24,2.406c0.27,0.759 1.385,0.821 2.41,0.821l0.339,0l0,0.985l-9.268,0Z" style="fill:#22294b;"/><path d="M129.901,180.083c-0.633,1.313 -1.258,2.303 -1.853,2.941c-0.433,0.454 -0.884,0.756 -1.344,0.906c-0.459,0.157 -1.262,0.239 -2.397,0.239l-3.517,0c-0.49,0 -0.826,-0.086 -0.989,-0.249c-0.257,-0.257 -0.253,-0.858 -0.248,-1.553l0,-6.966l4.291,0c2.094,0 2.496,0.764 2.787,3.005l0.05,0.41l1.25,0l0,-8.673l-1.241,0l-0.023,0.451c-0.104,2.127 -0.753,2.772 -2.78,2.772l-4.334,0l0,-7.828l5.385,0c1.305,0 2.339,0.072 2.898,1.016c0.233,0.383 0.451,1.137 0.655,2.246l0.072,0.386l1.318,0l-0.275,-5.81l-16.903,0l0,1.365l1.209,0c1.605,0 1.754,0.766 1.754,2.783l0,14.356c0,1.341 -0.092,2.112 -0.145,2.279c-0.266,0.781 -1.223,0.845 -2.345,0.845l-0.473,0l0,1.327l16.799,0l2.086,-6.515l-1.555,0l-0.132,0.267Z" style="fill:#22294b;"/><path d="M243.342,180.286c-0.635,1.314 -1.259,2.1 -1.854,2.738c-0.436,0.454 -0.885,0.756 -1.341,0.906c-0.461,0.157 -1.267,0.239 -2.397,0.239l-3.519,0c-0.494,0 -0.824,-0.086 -0.986,-0.249c-0.258,-0.257 -0.258,-0.858 -0.253,-1.553l0,-6.966l4.295,0c2.089,0 2.49,0.764 2.783,3.005l0.05,0.41l1.253,0l0,-8.673l-1.245,0l-0.017,0.451c-0.109,2.127 -0.759,2.772 -2.783,2.772l-4.336,0l0,-7.828l5.385,0c1.305,0 2.343,0.072 2.901,1.016c0.232,0.383 0.451,1.137 0.656,2.246l0.07,0.386l1.316,0l-0.271,-5.81l-16.906,0l0,1.415l1.208,0c1.605,0 1.758,0.766 1.758,2.783l0,14.459c0,1.336 -0.095,1.821 -0.149,1.991c-0.266,0.781 -1.218,0.844 -2.342,0.844l-0.475,0l0,1.463l16.798,0l2.09,-6.311l-1.562,0l-0.127,0.266Z" style="fill:#22294b;"/><path d="M145.654,186.85c-3.255,0 -5.814,-1.424 -7.597,-4.237c-1.314,-2.06 -1.977,-4.516 -1.977,-7.297c0,-2.23 0.438,-4.316 1.298,-6.198c0.868,-1.887 2.083,-3.377 3.618,-4.429c1.548,-1.046 3.252,-1.578 5.076,-1.578c1.431,0 2.86,0.41 4.239,1.217c0.246,0.151 0.459,0.231 0.621,0.231c0.418,0 0.618,-0.68 0.697,-1.08l0.074,-0.368l1.28,0l0.486,8.327l-1.264,0l-0.086,-0.338c-0.551,-2.131 -1.327,-3.67 -2.316,-4.578c-0.966,-0.898 -2.149,-1.354 -3.507,-1.354c-1.141,0 -2.19,0.346 -3.113,1.022c-0.923,0.677 -1.663,1.79 -2.21,3.307c-0.551,1.551 -0.839,3.522 -0.839,5.856c0,1.916 0.27,3.59 0.79,4.981c0.51,1.352 1.281,2.401 2.298,3.119c0.979,0.697 2.216,1.086 3.475,1.086c1.097,0 2.126,-0.294 2.975,-0.845c0.876,-0.571 1.86,-1.74 2.93,-3.475l0.259,-0.422l1.124,0.842l-0.162,0.338c-0.964,1.996 -2.117,3.49 -3.433,4.437c-1.323,0.953 -2.916,1.436 -4.736,1.436Z" style="fill:#22294b;"/><path d="M284.644,163.514l0,1.155l0.558,0.1c0.692,0.126 1.06,0.34 1.265,0.733c0.525,0.971 0.525,4.577 0.525,6.51l0,4.216c0,5.435 -1.725,8.189 -5.129,8.189c-3.322,0 -5.006,-2.79 -5.006,-8.288l0,-7.722c0,-3.433 0.212,-3.465 1.399,-3.638l0.61,-0.093l0,-1.26l-7.866,0l0,1.251l0.502,0.1c1.251,0.248 1.414,0.279 1.414,3.64l0,8.564c0,3.498 0.652,5.92 1.998,7.403c1.387,1.532 3.363,2.25 6.217,2.25c1.747,0 4.195,-0.458 5.946,-2.636c1.354,-1.684 1.986,-4.217 1.986,-7.964l0,-4.012c0,-2.612 0,-5.575 0.393,-6.541c0.144,-0.384 0.505,-0.497 1.094,-0.639l0.576,-0.151l0,-1.167l-6.482,0Z" style="fill:#22294b;fill-rule:nonzero;"/><path d="M316.439,186.295l0,-1.494l0.668,0c0.976,0 1.49,-0.105 1.824,-0.682c0.086,-0.149 0.23,-0.641 0.23,-2.179l0,-14.183c0,-1.725 -0.207,-2.178 -0.298,-2.296c-0.374,-0.501 -0.944,-0.541 -1.643,-0.541l-0.781,0.004l0,-1.503l9.489,0l0,1.496l-0.632,0.007c-0.79,0.005 -2.113,0.018 -2.343,0.513c-0.194,0.372 -0.203,1.122 -0.203,2.32l0,14.183c0,1.078 0.118,1.511 0.185,1.673c0.059,0.114 0.158,0.208 0.298,0.274c0.022,0.007 0.329,0.115 1.991,0.115l1.386,0c1.737,0 2.532,-0.181 2.893,-0.339c0.506,-0.215 0.989,-0.614 1.422,-1.179c0.456,-0.595 0.926,-1.561 1.386,-2.866l0.136,-0.389l1.304,0.331l-1.833,6.735l-15.479,0Z" style="fill:#22294b;"/><path d="M258.579,165.569c-0.567,0 -1.157,0.048 -1.747,0.145l-0.102,0.014l0,8.721c0,0 0.448,0.009 0.598,0.009c2.081,0 3.661,-0.439 4.686,-1.309c1.023,-0.853 1.537,-1.959 1.537,-3.287c0,-3.548 -2.707,-4.293 -4.972,-4.293Zm-8.997,20.874l0,-1.552l0.794,0c0.912,0 1.705,-0.059 2.176,-0.775c0.198,-0.286 0.3,-0.986 0.3,-2.133l0,-14.142c0,-2.447 -0.467,-2.91 -2.932,-2.91l-0.338,0l0,-1.404l8.622,0c2.433,0 4.261,0.181 5.442,0.539c2.606,0.788 4.354,3.03 4.354,5.58c0,1.467 -0.493,2.753 -1.458,3.829c-0.858,0.95 -2.145,1.661 -3.829,2.103l-0.112,0.029c-0.308,0.061 -1.099,0.226 -1.867,0.326c-0.734,0.091 -1.627,0.186 -1.995,0.225l-0.143,0.014l-0.068,-0.007c-0.326,0.018 -0.695,0.026 -1.117,0.026c-0.185,0 -0.372,0 -0.557,-0.006l-0.124,-0.002l0,5.8c0,1.238 0.129,2.009 0.381,2.296c0.502,0.567 1.231,0.612 1.996,0.612l0.898,0l0,1.552l-10.423,0Z" style="fill:#22294b;"/><path d="M209.314,165.473c-0.561,0 -1.141,0.049 -1.728,0.142l-0.098,0.013l0,8.623c0,0 0.446,0.009 0.594,0.009c2.055,0 3.611,-0.438 4.63,-1.296c1.009,-0.844 1.518,-1.937 1.518,-3.245c0,-3.508 -2.671,-4.246 -4.916,-4.246Zm7.657,20.858l-7.638,-10.388l-0.063,0.005c-0.326,0.023 -0.691,0.03 -1.107,0.03c-0.186,0 -0.675,-0.007 -0.675,-0.007l0,6.093c0,1.224 0.129,1.992 0.382,2.267c0.492,0.565 1.21,0.609 1.964,0.609l0.898,-0.004l0,1.395l-10.313,0l0,-1.395l0.786,0.002c0.904,0 1.686,-0.056 2.15,-0.765c0.2,-0.284 0.296,-0.975 0.296,-2.109l0,-14.348c0,-2.417 -0.46,-2.873 -2.895,-2.873l-0.337,0l0,-1.395l8.53,0c2.402,0 4.212,0.181 5.379,0.537c2.575,0.777 4.304,2.994 4.304,5.521c0,1.449 -0.483,2.723 -1.44,3.781c-0.836,0.928 -2.074,1.62 -3.688,2.061l-0.162,0.045l4.333,5.783c1.025,1.417 1.912,2.374 2.641,2.837c0.786,0.49 1.77,0.805 2.844,0.925l0.299,0.034l0,1.359l-6.488,0Z" style="fill:#22294b;"/><path d="M107.999,180.413l-1.407,0c-0.634,1.622 -1.891,2.672 -2.695,3.187c-0.902,0.559 -1.78,0.754 -4.916,0.754c-2.433,0 -3.156,-0.037 -3.733,-0.066c-0.741,-0.043 -0.964,-0.057 -0.964,-0.057c0,0 1.618,-2.871 2.228,-3.852c0.194,-0.318 0.361,-0.582 0.46,-0.752l5.235,-8.356c1.004,-1.602 5.275,-8.179 5.275,-8.179c-0.741,0.033 -2.704,0.031 -4.461,0.031l-8.532,0c-2.587,0 -3.002,-0.093 -3.178,-0.695l-0.007,-0.028l-0.968,0l-0.004,0.046c-0.244,1.28 -0.572,2.541 -0.917,3.875c-0.158,0.615 -0.316,1.238 -0.474,1.869l-0.013,0.061l1.598,0c0.264,-0.649 0.718,-1.58 1.318,-2.217c0.722,-0.766 2.103,-1.097 4.618,-1.097l3.91,0c0.338,0 0.808,0 0.871,0.014c-0.023,0.282 -1.743,2.883 -2.817,4.616l-6.754,10.796c-1.332,2.117 -4,6.008 -4,6.008l12.695,-0.04c2.056,0 3.817,0.027 5.508,0.086l2.124,-6.004Z" style="fill:#22294b;fill-rule:nonzero;"/><path d="M334.338,67.999l0,-1.971l1.858,0c1.609,0 2.763,-0.541 3.418,-1.599c0.289,-0.449 0.626,-1.63 0.626,-4.703l0,-34.55l-4.639,0c-1.866,0 -3.214,0.151 -4.014,0.451c-0.982,0.392 -1.839,1.17 -2.551,2.306c-0.722,1.169 -1.159,2.773 -1.299,4.76l-0.027,0.344l-1.884,0l0.526,-11.461l34.696,0l0.496,11.461l-1.883,0l-0.041,-0.327c-0.221,-1.875 -0.515,-3.16 -0.889,-3.928c-0.586,-1.224 -1.389,-2.137 -2.381,-2.722c-1.005,-0.587 -2.345,-0.884 -3.981,-0.884l-5.5,0l0,34.55c0,2.522 0.238,4.006 0.753,4.675c0.495,0.604 1.586,1.627 3.304,1.627l1.813,0l0,1.971l-18.401,0Z" style="fill:#d3b17b;"/><path d="M365.007,68.029l0,-2.056l0.709,0c2.294,0 4.405,-0.158 5.054,-2.078c0.23,-0.681 0.347,-2.129 0.347,-4.293l0,-29.719c0,-3.895 -0.206,-6.285 -4.224,-6.285l-1.886,0l0,-2.046l33.624,0l0.505,10.748l-1.926,0l-0.058,-0.302c-0.433,-2.354 -0.911,-3.977 -1.421,-4.828c-1.313,-2.207 -3.716,-2.384 -6.493,-2.384l-11.344,0l0,17.34l9.013,0c4.45,0 6.105,-1.643 6.34,-6.291l0.018,-0.349l1.885,0l0,16.654l-1.862,0l-0.041,-0.32c-0.585,-4.512 -1.362,-6.488 -6.34,-6.488l-9.013,0l0,14.699c0,2.569 0.14,3.342 0.231,3.578c0.436,1.092 1.582,1.179 2.925,1.179l7.246,0c2.436,0 4.112,-0.172 5.131,-0.524c1.032,-0.334 2.042,-1.015 3.007,-2.021c1.269,-1.362 2.589,-3.45 3.933,-6.207l0.076,-0.161l2.015,-0.048l-3.91,12.202l-33.541,0Z" style="fill:#d3b17b;"/><path d="M303.358,67.999l0,-1.971l1.01,0c1.766,0 3.305,-0.115 4.278,-1.512c0.308,-0.443 0.677,-1.67 0.677,-4.967l0,-29.521c0,-2.785 -0.202,-3.958 -0.374,-4.455c-0.181,-0.483 -0.545,-0.892 -1.109,-1.255c-0.822,-0.497 -1.706,-0.749 -2.626,-0.749l-1.856,0l0,-1.993l18.585,0l0,1.993l-1.876,0c-1.565,0 -2.705,0.497 -3.407,1.48c-0.465,0.666 -0.705,2.344 -0.705,4.979l0,29.521c0,2.398 0.249,4.183 0.473,4.828c0.542,1.52 2.779,1.651 4.834,1.651l0.681,0l0,1.971l-18.585,0Z" style="fill:#d3b17b;"/><path d="M266.558,67.999l0,-1.971l0.829,0c1.88,0 3.386,-0.129 4.284,-1.705c0.37,-0.656 0.559,-2.274 0.559,-4.807l0,-29.488c0,-2.762 -0.252,-4.483 -0.739,-5.116c-0.943,-1.242 -2.31,-1.343 -3.868,-1.343l-1.065,0.002l0,-1.995l18.598,0l0,1.991l-0.754,0.004c-2.001,0.017 -4.752,0.041 -5.383,1.392c-0.447,0.876 -0.465,2.416 -0.465,5.065l0,29.488c0,2.216 0.235,3.232 0.433,3.695c0.188,0.378 0.482,0.661 0.893,0.856c0.198,0.092 1.037,0.297 4.377,0.297l2.881,0c2.977,0 5.073,-0.254 6.233,-0.745c1.154,-0.493 2.222,-1.377 3.187,-2.63c0.986,-1.287 1.984,-3.343 2.972,-6.118l0.108,-0.314l1.651,0.414l-3.549,13.028l-31.182,0Z" style="fill:#d3b17b;"/><path d="M245.412,49.475l-6.547,-17.07l-6.693,17.07l13.24,0Zm0.523,18.524l0,-2.194l0.35,-0.017c2.621,-0.137 3.896,-0.937 3.896,-2.445c0,-0.942 -0.445,-2.294 -1.207,-4.31l-2.453,-6.384l-15.65,0.051l-2.67,6.986c-0.649,1.639 -1.028,2.752 -1.028,3.607c0,1.884 2.268,2.32 4.491,2.495l0.337,0.027l0,2.184l-13.85,0l0,-2.143l0.297,-0.059c4.026,-0.811 5.082,-3.562 6.548,-7.366l14.739,-37.884l1.538,-0.052l14.656,38.275c1.399,3.686 2.873,6.757 6.833,7.018l0.343,0.023l0,2.188l-17.17,0Z" style="fill:#d3b17b;"/><path d="M196.266,67.999l0,-1.971l1.856,0c1.615,0 2.769,-0.541 3.424,-1.599c0.288,-0.452 0.625,-1.636 0.625,-4.703l0,-34.55l-4.639,0c-1.871,0 -3.219,0.151 -4.013,0.451c-0.983,0.392 -1.84,1.168 -2.557,2.306c-0.717,1.172 -1.154,2.774 -1.298,4.762l-0.022,0.342l-1.889,0l0.531,-11.461l34.696,0l0.496,11.461l-1.89,0l-0.031,-0.327c-0.23,-1.882 -0.523,-3.168 -0.898,-3.928c-0.58,-1.22 -1.379,-2.137 -2.381,-2.722c-1.004,-0.587 -2.338,-0.884 -3.976,-0.884l-5.5,0l0,34.55c0,2.522 0.239,4.006 0.754,4.675c0.494,0.604 1.586,1.627 3.303,1.627l1.813,0l0,1.971l-18.404,0Z" style="fill:#d3b17b;"/><path d="M171.931,69.043c-1.209,0 -2.381,-0.102 -3.486,-0.312c-0.641,-0.103 -1.948,-0.509 -3.995,-1.234c-2.539,-0.912 -3.39,-1.047 -3.674,-1.047c-0.397,0 -0.709,0.128 -0.947,0.383c-0.141,0.153 -0.392,0.601 -0.558,1.891l-0.047,0.319l-1.829,0l0,-16.398l1.825,0l0.051,0.311c0.521,3.218 1.23,5.657 2.109,7.239c0.869,1.568 2.214,2.886 3.985,3.917c1.79,1.036 3.779,1.558 5.907,1.558c2.444,0 4.401,-0.708 5.813,-2.108c1.424,-1.424 2.113,-3.059 2.113,-4.992c0,-1.082 -0.26,-2.145 -0.802,-3.248c-0.528,-1.074 -1.379,-2.107 -2.534,-3.071c-0.754,-0.643 -2.877,-2.043 -6.497,-4.268c-3.516,-2.155 -6.087,-3.929 -7.643,-5.267c-1.515,-1.313 -2.701,-2.8 -3.521,-4.423c-0.798,-1.627 -1.204,-3.432 -1.204,-5.369c0,-3.358 1.195,-6.293 3.543,-8.719c2.359,-2.427 5.398,-3.66 9.02,-3.66c2.276,0 4.697,0.611 7.191,1.813c1.356,0.673 1.984,0.811 2.268,0.811c1.189,0 1.523,-1.149 1.762,-2.327l0.064,-0.297l1.799,0l0,16.537l-1.827,0l-0.041,-0.322c-0.365,-2.979 -1.018,-5.371 -1.938,-7.12c-0.919,-1.737 -2.245,-3.128 -3.941,-4.132c-1.726,-1.032 -3.45,-1.533 -5.275,-1.533c-2.047,0 -3.688,0.661 -5.018,2.026c-1.318,1.343 -1.985,2.889 -1.985,4.605c0,1.31 0.419,2.52 1.249,3.583c1.232,1.644 4.238,3.878 8.951,6.646c3.998,2.355 6.623,4.093 8.021,5.316c1.443,1.229 2.579,2.723 3.382,4.442c0.789,1.721 1.185,3.525 1.185,5.374c0,3.543 -1.267,6.643 -3.773,9.208c-2.516,2.568 -5.78,3.868 -9.703,3.868Z" style="fill:#d3b17b;"/><path d="M123.542,67.999l0,-1.999l1.839,0c1.659,0 2.777,-0.513 3.426,-1.566c0.415,-0.642 0.627,-2.224 0.627,-4.708l0,-10.748l-11.385,-19.022l-0.469,-0.798c-1.604,-2.748 -3.264,-5.589 -6.731,-5.589l-0.366,0l0,-1.993l18.554,0l0,1.993l-0.369,0c-1.205,0 -4.009,0.291 -4.009,2.955c0,0.723 0.167,1.738 1.406,3.824l8.374,14.19l7.845,-13.544c1.213,-2.091 1.804,-3.575 1.804,-4.528c0,-2.521 -2.417,-2.897 -3.851,-2.897l-0.37,0l0,-1.993l15.263,0l0,1.993l-0.369,0c-4.459,0 -6.908,4.348 -8.698,7.522l-10.005,17.284l0.013,11.351c0,2.572 0.239,4.009 0.776,4.665c0.492,0.599 1.583,1.609 3.394,1.609l1.715,0l0,1.999l-18.414,0Z" style="fill:#d3b17b;"/><path d="M85.609,43.792c0.321,0.01 0.641,0.02 0.955,0.02c4.334,0 7.63,-0.927 9.795,-2.756c2.159,-1.81 3.252,-4.153 3.252,-6.967c0,-7.925 -6.575,-9.105 -10.494,-9.105c-1.312,0 -2.692,0.124 -4.103,0.376l0,18.418c0.199,0.005 0.397,0.011 0.595,0.014Zm19.513,24.331l-15.815,-21.496c-0.812,0.061 -1.691,0.084 -2.576,0.084c-0.572,0 -1.145,-0.011 -1.717,-0.033l0,12.949c0,2.655 0.284,4.263 0.861,4.914c1.119,1.26 2.746,1.37 4.32,1.37l1.52,-0.01l0,2.222l-20.673,0l0,-2.222l1.298,0.002c1.889,0 3.67,-0.133 4.724,-1.729c0.456,-0.659 0.669,-2.1 0.669,-4.547l0,-29.674c0,-5.163 -1.123,-6.279 -6.318,-6.279l-0.373,0l0,-2.221l17.317,0c4.929,0 8.64,0.368 11.027,1.093c5.191,1.564 8.676,6.025 8.676,11.103c0,2.916 -0.975,5.474 -2.895,7.603c-1.826,2.026 -4.616,3.496 -8.285,4.374l9.259,12.361c2.151,2.967 4.018,4.97 5.559,5.95c1.655,1.033 3.738,1.714 6.015,1.964l0.334,0.039l0,2.183l-12.927,0Z" style="fill:#d3b17b;"/><path d="M50.782,69.036c-6.605,0 -11.786,-2.891 -15.41,-8.593c-2.679,-4.218 -4.04,-9.249 -4.04,-14.949c0,-4.584 0.897,-8.865 2.659,-12.723c1.773,-3.848 4.252,-6.883 7.373,-9.026c3.128,-2.124 6.586,-3.2 10.279,-3.2c2.9,0 5.786,0.828 8.585,2.462c0.6,0.372 1.133,0.562 1.584,0.562c1.226,0 1.78,-1.483 2.028,-2.725l0.059,-0.299l1.659,0l0.943,16.256l-1.574,0l-0.072,-0.275c-1.177,-4.559 -2.858,-7.875 -5.005,-9.858c-2.137,-1.973 -4.739,-2.976 -7.733,-2.976c-2.516,0 -4.816,0.753 -6.853,2.243c-2.025,1.486 -3.648,3.903 -4.821,7.185c-1.186,3.312 -1.789,7.501 -1.789,12.448c0,4.074 0.567,7.647 1.686,10.618c1.109,2.94 2.791,5.227 5.01,6.796c2.151,1.534 4.849,2.379 7.606,2.379c2.412,0 4.671,-0.646 6.538,-1.863c1.903,-1.242 4.026,-3.742 6.303,-7.447l0.212,-0.344l1.461,1.095l-0.131,0.276c-1.974,4.088 -4.324,7.139 -6.993,9.067c-2.674,1.92 -5.889,2.891 -9.564,2.891Z" style="fill:#d3b17b;"/><path d="M340.004,114.804l6.163,-15.709l6.021,15.709l-12.184,0Zm29.555,17.088c-3.586,-0.24 -5.019,-4.015 -6.281,-7.353l-14.518,-38.069l-1.9,0l-14.492,37.252l-0.36,0.951c-1.216,3.248 -2.363,6.319 -6.09,7.067l-0.265,0.052l0,1.821l14.062,0l0,-1.701l-0.57,-0.043c-2.75,-0.219 -4.146,-1.325 -4.146,-3.293c0,-0.79 0.363,-1.86 0.988,-3.435l2.808,-7.061l14.481,-0.024l2.535,6.45c0.752,1.985 1.162,3.229 1.162,4.126c0,1.936 -1.301,3.117 -3.56,3.237l-0.586,0.027l0,1.717l17.306,0l0,-1.682l-0.574,-0.039Z" style="fill:#d3b17b;"/><path d="M303.256,89.65l0.625,0c4.524,0 5.207,1.309 5.207,5.817l0,30.334c0,3.307 -0.384,4.37 -0.613,4.708c-0.879,1.262 -2.25,1.364 -3.961,1.364l-1.258,0l0,1.736l18.692,0.069l0,-1.725l-0.951,0c-1.998,0 -3.987,-0.112 -4.454,-1.435c-0.257,-0.711 -0.451,-2.705 -0.451,-4.637l0,-30.414c0,-4.508 0.688,-5.817 5.237,-5.817l0.619,0l0,-2.182l-18.692,0l0,2.182Z" style="fill:#d3b17b;"/><path d="M175.989,89.356l0.619,0c2.182,0 4.277,0.218 4.853,1.782c0.233,0.638 0.362,2.156 0.362,4.273l0,11.598l-18.811,0.012l0,-11.684c0,-3.137 0.348,-4.296 0.643,-4.712c0.887,-1.247 2.24,-1.342 3.918,-1.342l1.289,0.003l0,-1.702l-18.688,0l0,1.772l0.621,0c2.178,0 4.276,0.221 4.864,1.786c0.158,0.464 0.343,1.585 0.343,4.269l0,30.414c0,3.482 -0.427,4.452 -0.613,4.714c-0.879,1.26 -2.252,1.362 -3.955,1.362l-1.26,-0.005l0,1.603l18.688,0l0,-1.63l-0.928,0c-2.008,0 -4.004,-0.11 -4.476,-1.443c-0.227,-0.641 -0.446,-3.347 -0.446,-5.455l0,-14.332l18.811,0l0,15.104c0,3.48 -0.434,4.449 -0.621,4.711c-0.897,1.293 -2.43,1.47 -3.953,1.47l-1.26,-0.002l0,1.577l18.685,0l0,-1.546l-0.927,0c-1.483,0 -3.961,0 -4.477,-1.444c-0.252,-0.724 -0.445,-2.716 -0.445,-4.631l0,-30.541c0,-3.143 0.347,-4.298 0.638,-4.712c0.885,-1.247 2.243,-1.342 3.922,-1.342l1.289,0.003l0,-1.702l-18.685,0l0,1.772Z" style="fill:#d3b17b;"/><path d="M236.631,121.059l-0.162,0.339c-1.301,2.683 -2.576,4.703 -3.793,6.002c-0.918,0.955 -1.869,1.594 -2.83,1.907c-0.963,0.33 -2.621,0.5 -4.926,0.5l-7.082,0c-1.097,0 -1.826,-0.198 -2.232,-0.603c-0.609,-0.614 -0.602,-1.884 -0.592,-3.356l0,-14.754l8.969,0c4.619,0 5.355,1.927 5.93,6.328l0.072,0.541l1.885,0l0,-16.779l-1.848,0l-0.027,0.585c-0.227,4.465 -1.668,5.899 -5.934,5.899l-9.047,0l0,-16.418l11.17,0c2.625,0 4.904,0.168 6.121,2.206c0.49,0.82 0.936,2.336 1.354,4.628l0.091,0.507l2.022,0l-0.52,-11.015l-33.353,0l0,1.624l2.098,0c3.697,0 3.867,2.035 3.867,5.93l0,30.724c0,2.759 -0.197,3.761 -0.317,4.11c-0.648,1.931 -3.078,1.931 -5.029,1.931l-0.619,0l0,1.59l33.225,0l3.982,-12.435l-2.475,0.009Z" style="fill:#d3b17b;"/><path d="M86.948,105.574c-0.992,1.028 -2.462,1.525 -4.493,1.525l-5.909,0l0.009,-11.105l-0.009,-4.402l0.137,-0.1c1.15,-0.833 2.673,-1.259 4.532,-1.259c5.594,0 7.266,5.669 7.368,8.664c0.081,2.243 -0.034,5.028 -1.635,6.677Zm-3.827,24.604c-2.2,0 -4.368,-0.822 -6.441,-2.438l-0.13,-0.099l0,-0.162c0.019,-4.804 0.014,-8.792 0.005,-13.195l-0.009,-4.332l2.796,0c7.651,0 11.076,5.807 11.076,11.559c0,0.888 -0.203,8.667 -7.297,8.667Zm11.878,-19.795c-1.508,-0.93 -3.509,-1.508 -6.122,-1.765l-0.861,-0.085l0.694,-0.517c2.085,-1.542 3.747,-3.167 4.942,-4.829c1.634,-2.3 2.465,-4.74 2.465,-7.257c0,-5.784 -3.668,-8.597 -11.221,-8.597l-21.239,0.072l0,1.918l2.073,0c1.373,0 2.968,0.556 3.428,1.801c0.253,0.714 0.357,1.894 0.357,3.948l0,31.18c0,3.104 -0.353,3.973 -0.62,4.358c-0.882,1.275 -2.269,1.378 -3.991,1.378l-1.247,-0.005l0,1.716l16.686,0.007c10.461,0 17.746,-8.691 17.746,-16.494c0,-3.268 -1.037,-5.563 -3.09,-6.829Z" style="fill:#d3b17b;"/><path d="M293.641,130.212c-0.652,-1.011 -0.957,-5.048 -1.101,-6.991l-2.215,-28.02c-0.116,-2.068 0.189,-3.414 0.961,-4.251c0.623,-0.68 1.57,-1.025 2.882,-1.05l0.598,-0.015l0,-2.123l-11.326,0.005l-11.797,35.34l-11.867,-35.345l-10.443,0l0,2.123l0.601,0.015c1.08,0.028 1.85,0.306 2.356,0.852c0.992,1.075 0.886,3.175 0.804,4.852c-0.133,1.69 -0.258,3.373 -0.377,5.065c-0.41,5.735 -0.832,11.669 -1.699,17.528c-0.937,6.32 -2.141,12.561 -5.818,13.547l-0.248,0.065l0,1.506l14.192,0l0,-1.362l-0.618,0c-2.522,0 -3.908,-4.337 -3.908,-12.211c0,-3.372 0.22,-7.847 0.652,-13.297l0.588,-7.518l0.758,-0.095l11.939,35.461l2.168,0c0,0 10.858,-31.638 12.486,-35.454l0.758,0.128l2.178,26.753c0.17,2.588 -0.178,4.316 -1.068,5.285c-0.524,0.563 -1.258,0.849 -2.192,0.859l-0.611,0.009l0,1.442l15.338,0l0,-1.369l-0.61,-0.01c-1.695,-0.035 -2.871,-0.948 -3.361,-1.724Z" style="fill:#d3b17b;"/><path d="M127.113,130.009c-4.036,0 -7.819,-2.085 -11.241,-6.196c-3.459,-4.132 -5.206,-9.809 -5.206,-16.871c0,-4.762 1.152,-8.628 3.428,-11.494c2.279,-2.866 5.061,-4.259 8.51,-4.259c2.283,0 4.794,0.927 7.472,2.762c8.157,5.553 8.79,17.16 8.79,20.587c0,4.555 -1.186,8.32 -3.514,11.192c-2.324,2.877 -5.02,4.279 -8.239,4.279Zm8.179,-40.911c-2.604,-1.569 -5.639,-2.369 -9.028,-2.369c-5.68,0 -10.79,2.62 -15.196,7.782c-4.381,5.134 -6.598,11.274 -6.598,18.254c0,6.057 1.78,11.218 5.303,15.343c3.554,4.135 7.935,6.232 13.028,6.232c10.145,0 16.037,-7.573 18.645,-12.09c2.402,-4.135 3.619,-8.787 3.619,-13.824c0,-4.627 -0.988,-8.652 -2.93,-11.956c-1.929,-3.309 -4.23,-5.787 -6.843,-7.372Z" style="fill:#d3b17b;"/></g></svg>